<?xml version="1.0" encoding="UTF-8" standalone="no"?>
<!-- Created with Inkscape (http://www.inkscape.org/) -->

<svg
   xmlns:dc="http://purl.org/dc/elements/1.1/"
   xmlns:cc="http://creativecommons.org/ns#"
   xmlns:rdf="http://www.w3.org/1999/02/22-rdf-syntax-ns#"
   xmlns:svg="http://www.w3.org/2000/svg"
   xmlns="http://www.w3.org/2000/svg"
   xmlns:sodipodi="http://sodipodi.sourceforge.net/DTD/sodipodi-0.dtd"
   xmlns:inkscape="http://www.inkscape.org/namespaces/inkscape"
   width="210mm"
   height="169mm"
   viewBox="0 0 210 168.99999"
   version="1.1"
   id="svg8"
   inkscape:version="0.92.0 r15299"
   sodipodi:docname="Bed.svg">
  <defs
     id="defs2" />
  <sodipodi:namedview
     id="base"
     pagecolor="#ffffff"
     bordercolor="#666666"
     borderopacity="1.0"
     inkscape:pageopacity="0.0"
     inkscape:pageshadow="2"
     inkscape:zoom="0.35"
     inkscape:cx="571.86892"
     inkscape:cy="519.511"
     inkscape:document-units="mm"
     inkscape:current-layer="layer1"
     showgrid="false"
     inkscape:snap-global="false"
     showborder="true"
     inkscape:window-width="1360"
     inkscape:window-height="705"
     inkscape:window-x="-8"
     inkscape:window-y="-8"
     inkscape:window-maximized="1"
     borderlayer="false"
     scale-x="1"
     inkscape:showpageshadow="false" />
  <metadata
     id="metadata5">
    <rdf:RDF>
      <cc:Work
         rdf:about="">
        <dc:format>image/svg+xml</dc:format>
        <dc:type
           rdf:resource="http://purl.org/dc/dcmitype/StillImage" />
        <dc:title></dc:title>
      </cc:Work>
    </rdf:RDF>
  </metadata>
  <g
     inkscape:label="Layer 1"
     inkscape:groupmode="layer"
     id="layer1"
     transform="translate(0,-128)">
    <path
       style="opacity:1;fill:none;fill-opacity:0.54871796;fill-rule:nonzero;stroke:#000000;stroke-width:8.08300018;stroke-linecap:round;stroke-linejoin:miter;stroke-miterlimit:4;stroke-dasharray:none;stroke-dashoffset:403.79205322;stroke-opacity:1;paint-order:stroke fill markers"
       d="m 4.073691,246.53545 v 46.133 H 25.19814 v -11.89733 c 0,-7.06153 5.683538,-12.74786 12.745077,-12.74786 H 172.06651 c 7.06147,0 12.74508,5.68633 12.74508,12.74786 v 11.89733 h 21.1216 v -46.133 z"
       id="rect4496"
       inkscape:connector-curvature="0" />
    <path
       style="opacity:1;fill:none;fill-opacity:0.54871796;fill-rule:nonzero;stroke:#000000;stroke-width:8.08300018;stroke-linecap:round;stroke-linejoin:miter;stroke-miterlimit:4;stroke-dasharray:none;stroke-dashoffset:403.79205322;stroke-opacity:1;paint-order:stroke fill markers"
       d="m 58.642342,183.53394 c -30.230667,0 -54.568651,24.33517 -54.568651,54.56581 0,2.87075 -0.1455273,5.68704 0.2775908,8.4357 H 205.67446 c 0.42295,-2.74866 0.25889,-5.56495 0.25889,-8.4357 0,-30.23064 -24.33516,-54.56581 -54.56586,-54.56581 z"
       id="path4508"
       inkscape:connector-curvature="0"
       sodipodi:nodetypes="ssccsss" />
    <path
       style="opacity:1;fill:none;fill-opacity:0.54871796;fill-rule:nonzero;stroke:#000000;stroke-width:8.08300018;stroke-linecap:round;stroke-linejoin:miter;stroke-miterlimit:4;stroke-dasharray:none;stroke-dashoffset:403.79205322;stroke-opacity:1;paint-order:stroke fill markers"
       d="m 22.482677,132.56487 c -4.842181,0 -8.739887,3.89772 -8.739887,8.73989 v 65.71675 c 9.83174,-14.20782 26.238618,-23.48757 44.899284,-23.48757 h 1.822349 90.902687 1.82235 c 18.39315,0 34.59039,9.01824 44.46555,22.88203 v -65.11121 c 0,-4.84217 -3.89766,-8.73989 -8.73989,-8.73989 z"
       id="rect4510"
       inkscape:connector-curvature="0" />
    <path
       style="opacity:1;fill:none;fill-opacity:0.54871796;fill-rule:nonzero;stroke:#000000;stroke-width:8.08300018;stroke-linecap:round;stroke-linejoin:miter;stroke-miterlimit:4;stroke-dasharray:none;stroke-dashoffset:403.79205322;stroke-opacity:1;paint-order:stroke fill markers"
       d="m 55.935337,160.00979 c -12.697129,0 -22.918613,5.96577 -22.918613,13.37598 v 16.49679 c 7.633671,-4.0499 16.349103,-6.34862 25.62535,-6.34862 h 1.822349 43.626207 v -10.14817 c 0,-7.41021 -10.2215,-13.37598 -22.918629,-13.37598 z"
       id="rect4516"
       inkscape:connector-curvature="0" />
    <path
       style="opacity:1;fill:none;fill-opacity:0.54871796;fill-rule:nonzero;stroke:#000000;stroke-width:8.08300018;stroke-linecap:round;stroke-linejoin:miter;stroke-miterlimit:4;stroke-dasharray:none;stroke-dashoffset:403.79205322;stroke-opacity:1;paint-order:stroke fill markers"
       d="m 128.81185,160.00979 c -12.69713,0 -22.91862,5.96577 -22.91862,13.37598 v 10.14817 h 45.47388 1.82235 c 8.53533,0 16.60013,1.94308 23.78048,5.40787 v -15.55604 c 0,-7.41021 -10.22426,-13.37598 -22.92144,-13.37598 z"
       id="rect4518"
       inkscape:connector-curvature="0" />
  </g>
</svg>
