<svg
  xmlns="http://www.w3.org/2000/svg"
  width="512"
  height="512"
  viewBox="0 0 512 512"
>
  <g fill="#333">
    <path d="M256 32c-8.836 0-16 7.164-16 16v152h32V48c0-8.836-7.164-16-16-16z" />
    <path d="M64 304v176h160V304H64z" />
    <path d="M448 304v176h160V304H448z" />
    <path d="M304 304v176h160V304H304z" />
    <path d="M496 464h-80V304h32v128h32V304h32v160z" />
  </g>
  <g fill="#555">
    <path d="M64 288v16h384v-16H64zm0-96h384v16H64v-16z" />
  </g>
  <g fill="#666">
    <path d="M464 240H48c-8.836 0-16 7.164-16 16v64h32v-48h384v48h32v-64c0-8.836-7.164-16-16-16z" />
    <path d="M432 288v-64h-80v64h80zM128 288v-64H48v64h80z" />
  </g>
  <g fill="#FFD700">
    <path d="M128 336H80v-48h48v48zM352 336h-48v-48h48v48zM352 240h-48v-48h48v48z" />
  </g>
</svg>
